# xmcd
#
# Track frame offsets: 
#        182
#        12412
#        25247
#        34287
#        46252
#        58810
#        71222
#        80707
#        92180
#        101992
#        112417
#        123525
#        134885
#        147930
#        161660
#        173922
#        185567
#        199087
#        209175
#        218755
#        234495
#        244360
#        253957
#        266812
#        278535
#        289240
#
# Disc length: 4015 seconds
#
# Revision: 0
# Processed by: cddbd v1.5.1PL0 Copyright (c) Steve Scherf et al.
# Submitted via: ExactAudioCopy v0.95a5
#
DISCID=b60fad1a
DTITLE=Rosco Gordon - Lets Get High
DYEAR=1900
DGENRE=Blues
TTITLE0=She's My Baby
TTITLE1=That's What You Do To Me
TTITLE2=I'm Gonna Shake It
TTITLE3=Lets Get High
TTITLE4=Just My Memories Of You
TTITLE5=Nineteen Years
TTITLE6=Love With Me Baby
TTITLE7=Do The Chicken
TTITLE8=I Don't Like It
TTITLE9=Just Love Me Baby
TTITLE10=T Model Boogie
TTITLE11=Decorate The Counter
TTITLE12=If You Want Your Man
TTITLE13=Dream on Baby
TTITLE14=Cheese And Crackers
TTITLE15=Do the Chicken .alt
TTITLE16=Don't Take It Out On me
TTITLE17=If You Don't Love Me Baby
TTITLE18=Real Pretty Mama
TTITLE19=Tired Of Living
TTITLE20=New Orleans L.A
TTITLE21=Just A Little Bit
TTITLE22=That's What You Do To Me .alt
TTITLE23=Jelly,Jelly,Jelly
TTITLE24=What I Wouldn't Do
TTITLE25=No More Doggin'
EXTD=
EXTT0=
EXTT1=
EXTT2=
EXTT3=
EXTT4=
EXTT5=
EXTT6=
EXTT7=
EXTT8=
EXTT9=
EXTT10=
EXTT11=
EXTT12=
EXTT13=
EXTT14=
EXTT15=
EXTT16=
EXTT17=
EXTT18=
EXTT19=
EXTT20=
EXTT21=
EXTT22=
EXTT23=
EXTT24=
EXTT25=
PLAYORDER=
